{"title":"Mortal.Kombat.1995.1080p.BluRay.x264.DTS-FGT","uid":12226385,"size":10229943547,"categoryP":"video","categoryS":"hd___movies","magnet":"?xt=urn:btih:7cbfa98700958357664c5300e9f7107d3fba4724&amp;dn=Mortal.Kombat.1995.1080p.BluRay.x264.DTS-FGT&amp;tr=udp%3A%2F%2Ftracker.openbittorrent.com%3A80&amp;tr=udp%3A%2F%2Fopen.demonii.com%3A1337&amp;tr=udp%3A%2F%2Ftracker.coppersurfer.tk%3A6969&amp;tr=udp%3A%2F%2Fexodus.desync.com%3A6969","seeders":0,"leechers":0,"uploader":null,"files":3,"time":1439482714,"description":"Video\nID                                       : 1\nFormat                                   : AVC\nFormat/Info                              : Advanced Video Codec\nFormat profile                           : &lt;a class=&quot;__cf_email__&quot; href=&quot;/cdn-cgi/l/email-protection&quot; data-cfemail=&quot;8ac2e3ede2cac6bea4bb&quot;&gt;[email&amp;#160;protected]&lt;/a&gt;&lt;script data-cfhash='f9e31' type=&quot;text/javascript&quot;&gt;\n/* &lt;![CDATA[ */!function(){try{var t=&quot;currentScript&quot;in document?document.currentScript:function(){for(var t=document.getElementsByTagName(&quot;script&quot;),e=t.length;e--;)if(t[e].getAttribute(&quot;data-cfhash&quot;))return t[e]}();if(t&amp;&amp;t.previousSibling){var e,r,n,i,c=t.previousSibling,a=c.getAttribute(&quot;data-cfemail&quot;);if(a){for(e=&quot;&quot;,r=parseInt(a.substr(0,2),16),n=2;a.length-n;n+=2)i=parseInt(a.substr(n,2),16)^r,e+=String.fromCharCode(i);e=document.createTextNode(e),c.parentNode.replaceChild(e,c)}t.parentNode.removeChild(t);}}catch(u){}}()/* ]]&gt; */&lt;/script&gt;\nFormat settings, CABAC                   : Yes\nFormat settings, ReFrames                : 4 frames\nCodec ID                                 : V_MPEG4/ISO/AVC\nDuration                                 : 1h 41mn\nBit rate                                 : 11.7 Mbps\nWidth                                    : 1 920 pixels\nHeight                                   : 1 080 pixels\nDisplay aspect ratio                     : 16:9\nFrame rate mode                          : Constant\nFrame rate                               : 23.976 fps\nColor space                              : YUV\nChroma subsampling                       : 4:2:0\nBit depth                                : 8 bits\nScan type                                : Progressive\nBits/(Pixel*Frame)                       : 0.235\nStream size                              : 8.27 GiB (87%)\nWriting library                          : x264 core 120 r2146kMod bcd41db\nEncoding settings                        : cabac=1 / ref=4 / deblock=1:-3:-3 / analyse=0x3:0x113 / me=umh / subme=11 / psy=1 / fade_compensate=0.00 / psy_rd=1.00:0.00 / mixed_ref=1 / me_range=48 / chroma_me=1 / trellis=2 / 8x8dct=1 / cqm=0 / deadzone=21,11 / fast_pskip=1 / chroma_qp_offset=-2 / threads=12 / sliced_threads=0 / nr=0 / decimate=1 / interlaced=0 / bluray_compat=0 / constrained_intra=0 / bframes=8 / b_pyramid=2 / b_adapt=2 / b_bias=0 / direct=1 / weightb=1 / open_gop=0 / weightp=2 / keyint=250 / keyint_min=23 / scenecut=40 / intra_refresh=0 / rc_lookahead=60 / rc=crf / mbtree=1 / crf=19.0000 / qcomp=0.60 / qpmin=0 / qpmax=69 / qpstep=4 / vbv_maxrate=50000 / vbv_bufsize=62500 / crf_max=0.0 / nal_hrd=none / ip_ratio=1.40 / aq=3:0.80\nLanguage                                 : English\nDefault                                  : Yes\nForced                                   : No\nColor range                              : Limited\nMatrix coefficients                      : BT.709\n\nAudio\nID                                       : 2\nFormat                                   : DTS\nFormat/Info                              : Digital Theater Systems\nMode                                     : 16\nFormat settings, Endianness              : Big\nCodec ID                                 : A_DTS\nDuration                                 : 1h 41mn\nBit rate mode                            : Constant\nBit rate                                 : 1 509 Kbps\nChannel(s)                               : 6 channels\nChannel positions                        : Front: L C R, Side: L R, LFE\nSampling rate                            : 48.0 KHz\nBit depth                                : 24 bits\nCompression mode                         : Lossy\nStream size                              : 1.07 GiB (11%)\nLanguage                                 : English\nDefault                                  : Yes\nForced                                   : No\n\nText\nID                                       : 3\nFormat                                   : UTF-8\nCodec ID                                 : S_TEXT/UTF8\nCodec ID/Info                            : UTF-8 Plain Text\nLanguage                                 : English\nDefault                                  : No\nForced                                   : No\n\nMenu\n00:00:00.000                             : en:Chapter 1\n00:00:50.133                             : en:Chapter 2\n00:02:39.284                             : en:Chapter 3\n00:04:50.414                             : en:Chapter 4\n00:07:56.893                             : en:Chapter 5\n00:12:10.354                             : en:Chapter 6\n00:15:35.934                             : en:Chapter 7\n00:18:15.219                             : en:Chapter 8\n00:21:30.372                             : en:Chapter 9\n00:25:00.831                             : en:Chapter 10\n00:29:01.030                             : en:Chapter 11\n00:36:24.556                             : en:Chapter 12\n00:39:41.670                             : en:Chapter 13\n00:42:41.850                             : en:Chapter 14\n00:45:38.527                             : en:Chapter 15\n00:50:59.473                             : en:Chapter 16\n00:52:52.252                             : en:Chapter 17\n00:56:08.281                             : en:Chapter 18\n01:00:15.028                             : en:Chapter 19\n01:05:48.653                             : en:Chapter 20\n01:09:06.015                             : en:Chapter 21\n01:10:51.956                             : en:Chapter 22\n01:17:09.666                             : en:Chapter 23\n01:20:50.470                             : en:Chapter 24\n01:23:53.987                             : en:Chapter 25\n01:30:26.629                             : en:Chapter 26\n01:31:34.863                             : en:Chapter 27","torrent":{"xt":"urn:btih:7cbfa98700958357664c5300e9f7107d3fba4724","amp;dn":"Mortal.Kombat.1995.1080p.BluRay.x264.DTS-FGT","amp;tr":["udp%3A%2F%2Ftracker.openbittorrent.com%3A80","udp%3A%2F%2Fopen.demonii.com%3A1337","udp%3A%2F%2Ftracker.coppersurfer.tk%3A6969","udp%3A%2F%2Fexodus.desync.com%3A6969"],"infoHash":"7cbfa98700958357664c5300e9f7107d3fba4724","infoHashBuffer":{"type":"Buffer","data":[124,191,169,135,0,149,131,87,102,76,83,0,233,247,16,125,63,186,71,36]},"announce":[],"urlList":[]}}